<svg xmlns="http://www.w3.org/2000/svg" viewBox="0 0 269.43 260.54">
  <g id="dirigible" opacity="1">
    <animate
      attributeName="opacity"
      attributeType="XML"
      from="1"
      to="0"
      fill="freeze"
      begin="3s"
      dur="0.2s"
      id="dirigibleOpacity"
    />
    <g id="clouds" opacity="0">
      <animate
        attributeName="opacity"
        attributeType="XML"
        from="0"
        to="1"
        fill="freeze"
        begin="0s"
        dur="0.5s"
        id="fadeInClouds"
      />
      <g fill="none" stroke="#fff" stroke-width="2" stroke-linecap="round" id="cloudLeft" transform="translate(180, 15)">
        <animateTransform
          attributeName="transform"
          attributeType="XML"
          type="translate"
          from="200, 15"
          to="-40, 15"
          dur="2.5s"
          begin="fadeInClouds.end"
          fill="freeze"
          id="cloudLeftTransform"
        />
        <animate
          attributeName="opacity"
          attributeType="XML"
          from="1"
          to="0"
          fill="freeze"
          begin="cloudLeftTransform.end - 0.5s"
          dur="0.5s"
        />
        <path d="M28.18 38.34h62.91"/>
        <path d="M1 28.08h35.29a12.4 12.4 0 1124.8 0h17.93"/>
      </g>
      <g stroke-miterlimit="10" fill="none" stroke="#fff" stroke-width="2" stroke-linecap="round" id="cloudRight"  transform="translate(140, 0)">
        <animateTransform
          attributeName="transform"
          attributeType="XML"
          type="translate"
          from="140, 0"
          to="-100, 0"
          dur="2.5s"
          begin="cloudLeftTransform.end - 2s"
          fill="freeze"
          id="cloudRightTransform"
        />
        <animate
          attributeName="opacity"
          attributeType="XML"
          from="1"
          to="0"
          fill="freeze"
          begin="cloudRightTransform.end - 0.5s"
          dur="0.5s"
        />
        <path d="M218.19 23.72h39.78"/>
        <path d="M237.98 13.45h-27.36a12.4 12.4 0 10-24.8 0h-17.94"/>
        <path fill="none" stroke="#fff" stroke-linecap="round" stroke-miterlimit="10" stroke-width="2" d="M246.24 13.45h22.19"/>
      </g>
    </g>
    <path d="M82.46 137.93h9.16a3.29 3.29 0 003.29-3.3v-5.71a3.29 3.29 0 00-3.29-3.3H74.8a1.32 1.32 0 00-1.32 1.32v2a9 9 0 009 9" fill="#068e4d"/>
    <path d="M82.46 137.93h9.16a3.29 3.29 0 003.29-3.3v-5.71a3.29 3.29 0 00-3.29-3.3H74.8a1.32 1.32 0 00-1.32 1.32v2a9 9 0 008.98 8.99z" fill="none" stroke="#fff" stroke-linecap="round" stroke-linejoin="round" stroke-width="2"/>
    <path d="M82.46 103.88h9.16a3.29 3.29 0 013.29 3.3v5.71a3.29 3.29 0 01-3.29 3.3H74.8a1.32 1.32 0 01-1.32-1.32v-2a9 9 0 019-9" fill="#068e4d"/>
    <path d="M82.46 103.88h9.16a3.29 3.29 0 013.29 3.3v5.71a3.29 3.29 0 01-3.29 3.3H74.8a1.32 1.32 0 01-1.32-1.32v-2a9 9 0 018.98-8.99z" fill="none" stroke="#fff" stroke-linecap="round" stroke-linejoin="round" stroke-width="2"/>

    <g id="cabin">
      <path d="M134.67 179.82h48.36a13.27 13.27 0 0013-10.65l3.74-18.32h-68.18v25.89a3.09 3.09 0 003.08 3.08z" fill="none" stroke="#fff" stroke-linecap="round" stroke-linejoin="round" stroke-width="2">
        <animate
          attributeType="XML"
          attributeName="d"
          dur="2s"
          values="
          M134.67 179.82h48.36a13.27 13.27 0 0013-10.65l3.74-18.32h-68.18v25.89a3.09 3.09 0 003.08 3.08z;
          m 134.67,177.63616 h 48.36 a 13.27,12.269671 0 0 0 13,-9.84717 L 199.77,150.85 h -68.18 v 23.93834 a 3.09,2.8570674 0 0 0 3.08,2.84782 z;
          M134.67 179.82h48.36a13.27 13.27 0 0013-10.65l3.74-18.32h-68.18v25.89a3.09 3.09 0 003.08 3.08z;
          m 134.67,183.096 h 48.36 a 13.27,14.770607 0 0 0 13,-11.85433 L 199.77,150.85 h -68.18 v 28.81771 a 3.09,3.4394253 0 0 0 3.08,3.42829 z;
          M134.67 179.82h48.36a13.27 13.27 0 0013-10.65l3.74-18.32h-68.18v25.89a3.09 3.09 0 003.08 3.08z;
        "
          repeatCount="indefinite"
        />
      </path>
      <path d="M195.02 172.23h-9.22a8.31 8.31 0 01-8.28-8.31v-13.07" fill="none" stroke="#fff" stroke-linecap="round" stroke-miterlimit="10" stroke-width="2">
        <animate
          attributeType="XML"
          attributeName="d"
          dur="2s"
          values="
          M195.02 172.23h-9.22a8.31 8.31 0 01-8.28-8.31v-13.07;
          m 195.02,170.61832 h -9.22 a 8.31,7.6835696 0 0 1 -8.28,-7.68357 V 150.85;
          M195.02 172.23h-9.22a8.31 8.31 0 01-8.28-8.31v-13.07;
          m 195.02,174.64771 h -9.22 a 8.31,9.2497167 0 0 1 -8.28,-9.24972 V 150.85;
          M195.02 172.23h-9.22a8.31 8.31 0 01-8.28-8.31v-13.07;
        "
          repeatCount="indefinite"
        />
      </path>
    </g>

    <path d="M164.23 157.62c43.38 0 74.86-15.55 74.86-37s-31.48-37-74.86-37c-27.94 0-55.36 13.53-73.46 24.87a14.3 14.3 0 000 24.21c18.09 11.33 45.52 24.87 73.46 24.87" fill="#068e4d"/>
    <path d="M164.23 157.62c43.38 0 74.86-15.55 74.86-37s-31.48-37-74.86-37c-27.94 0-55.36 13.53-73.46 24.87a14.3 14.3 0 000 24.21c18.09 11.38 45.52 24.92 73.46 24.92z" fill="none" stroke="#fff" stroke-width="2"/>
    <path d="M164.23 106.63c-28.23 0-56.07 5.76-72.81 10-3.95 1-6 2.66-6.08 4.34a12.93 12.93 0 016.07-11.43c16.74-10.5 44.58-24.68 72.81-24.68 44.81 0 73.64 16 73.64 35.75v.37c-.37-7.95-29.1-14.37-73.63-14.37" fill="#36e69a"/>
    <path d="M91.41 125.66c16.74 4.27 44.58 10 72.81 10 44.14 0 72.75-6.32 73.6-14.18-.86 19.34-29.45 34.86-73.6 34.86-28.23 0-56.07-14.19-72.81-24.68a12.88 12.88 0 01-6-10.18c.26 1.61 2.26 3.18 6 4.14" fill="#068e4d"/>
    <path d="M91.41 116.66c16.74-4.27 44.58-10 72.81-10 44.53 0 73.26 6.43 73.61 14.38v.51c-.85 7.86-29.45 14.17-73.6 14.17-28.23 0-56.07-5.76-72.81-10-3.79-1-5.79-2.53-6-4.13v-.51c.13-1.69 2.15-3.36 6.1-4.37" fill="#25b774">
      <animate
        attributeType="XML"
        attributeName="d"
        dur="2s"
        values="
        M91.41 116.66c16.74-4.27 44.58-10 72.81-10 44.53 0 73.26 6.43 73.61 14.38v.51c-.85 7.86-29.45 14.17-73.6 14.17-28.23 0-56.07-5.76-72.81-10-3.79-1-5.79-2.53-6-4.13v-.51c.13-1.69 2.15-3.36 6.1-4.37;
        m 91.33,116.31254 c 16.74,-4.49941 44.58,-10.53726 72.81,-10.53726 44.53,0 73.26,6.77546 73.61,15.15258 v 0.5374 c -0.85,8.28228 -29.45,14.93129 -73.6,14.93129 -28.23,0 -56.07,-6.06946 -72.81,-10.53726 -3.79,-1.05372 -5.79,-2.66592 -6,-4.35189 V 120.97 c 0.13,-1.78079 2.15,-3.54051 6.1,-4.60478;
        M91.41 116.66c16.74-4.27 44.58-10 72.81-10 44.53 0 73.26 6.43 73.61 14.38v.51c-.85 7.86-29.45 14.17-73.6 14.17-28.23 0-56.07-5.76-72.81-10-3.79-1-5.79-2.53-6-4.13v-.51c.13-1.69 2.15-3.36 6.1-4.37;
        m 91.41,115.09873 c 16.74,-4.27 44.58,-10 72.81,-10 44.53,0 73.26,6.43 73.61,14.38 v 0.51 c -0.85,7.86 -29.45,14.17 -73.6,14.17 -28.23,0 -56.07,-5.76 -72.81,-10 -3.79,-1 -5.79,-2.53 -6,-4.12999 v -0.51 c 0.13,-1.69001 2.15,-3.36001 6.1,-4.37;
        M91.41 116.66c16.74-4.27 44.58-10 72.81-10 44.53 0 73.26 6.43 73.61 14.38v.51c-.85 7.86-29.45 14.17-73.6 14.17-28.23 0-56.07-5.76-72.81-10-3.79-1-5.79-2.53-6-4.13v-.51c.13-1.69 2.15-3.36 6.1-4.37;
      "
        repeatCount="indefinite"
      />
    </path>

    <g id="windows">
      <path d="M163.48 162.42h-2.05a3.45 3.45 0 00-3.43 3.45v2.92a3.45 3.45 0 003.43 3.45h2.05a3.45 3.45 0 003.43-3.45v-2.92a3.44 3.44 0 00-3.43-3.45z" fill="none" stroke="#fff" stroke-linecap="round" stroke-linejoin="round" stroke-width="2">
        <animate
          attributeType="XML"
          attributeName="d"
          dur="2s"
          values="
          M163.48 162.42h-2.05a3.45 3.45 0 00-3.43 3.45v2.92a3.45 3.45 0 003.43 3.45h2.05a3.45 3.45 0 003.43-3.45v-2.92a3.44 3.44 0 00-3.43-3.45z;
          m 163.28484,160.66357 h -2.05 a 3.45,3.45 0 0 0 -3.43,3.45 v 2.92 a 3.45,3.45 0 0 0 3.43,3.45 h 2.05 a 3.45,3.45 0 0 0 3.43,-3.45 v -2.92 a 3.44,3.44 0 0 0 -3.43,-3.45 z;
          M163.48 162.42h-2.05a3.45 3.45 0 00-3.43 3.45v2.92a3.45 3.45 0 003.43 3.45h2.05a3.45 3.45 0 003.43-3.45v-2.92a3.44 3.44 0 00-3.43-3.45z;
          m 163.28484,164.95706 h -2.05 a 3.45,3.45 0 0 0 -3.43,3.45 v 2.92 a 3.45,3.45 0 0 0 3.43,3.45 h 2.05 a 3.45,3.45 0 0 0 3.43,-3.45 v -2.92 a 3.44,3.44 0 0 0 -3.43,-3.45 z;
          M163.48 162.42h-2.05a3.45 3.45 0 00-3.43 3.45v2.92a3.45 3.45 0 003.43 3.45h2.05a3.45 3.45 0 003.43-3.45v-2.92a3.44 3.44 0 00-3.43-3.45z;
        "
          repeatCount="indefinite"
        />
        <animate
          attributeType="XML"
          attributeName="d"
          values="
           M163.48 162.42h-2.05a3.45 3.45 0 00-3.43 3.45v2.92a3.45 3.45 0 003.43 3.45h2.05a3.45 3.45 0 003.43-3.45v-2.92a3.44 3.44 0 00-3.43-3.45z;
           m 163.90736,172.8169 h -3.00468 a 3.0871104,2.5854565 0 0 1 -3.07308,-2.58253 v -5.5602 a 3.0871104,2.5854565 0 0 1 3.07308,-2.58251 h 3.00468 a 3.0871104,2.5854565 0 0 1 3.07132,2.58251 v 5.55727 a 3.0888644,2.5869255 0 0 1 -3.07132,2.58546 z;
           M 220.60161,154.68747 H 203.30849 A 17.767602,17.439578 0 0 1 185.62164,137.26771 V 99.762704 a 17.767602,17.439578 0 0 1 17.68685,-17.41976 h 17.29312 a 17.767602,17.439578 0 0 1 17.67675,17.41976 v 37.485186 a 17.777696,17.449488 0 0 1 -17.67675,17.43958 z
          "
          dur="0.2s"
          begin="dirigibleOpacity.end - 0.5s"
          keyTimes="0; 0; 1"
          fill="freeze"
          id="windowTransform"
          repeatCount="1"
        />
      </path>
      <path d="M144.87 162.42h-2.05a3.45 3.45 0 00-3.43 3.45v2.92a3.45 3.45 0 003.43 3.45h2.05a3.45 3.45 0 003.43-3.45v-2.92a3.45 3.45 0 00-3.43-3.45z" fill="none" stroke="#fff" stroke-linecap="round" stroke-linejoin="round" stroke-width="2">
        <animate
          attributeType="XML"
          attributeName="d"
          dur="2s"
          values="
          M144.87 162.42h-2.05a3.45 3.45 0 00-3.43 3.45v2.92a3.45 3.45 0 003.43 3.45h2.05a3.45 3.45 0 003.43-3.45v-2.92a3.45 3.45 0 00-3.43-3.45z;
          m 144.67484,160.66357 h -2.05 a 3.45,3.45 0 0 0 -3.43,3.45 v 2.92 a 3.45,3.45 0 0 0 3.43,3.45 h 2.05 a 3.45,3.45 0 0 0 3.43,-3.45 v -2.92 a 3.45,3.45 0 0 0 -3.43,-3.45 z;
          M144.87 162.42h-2.05a3.45 3.45 0 00-3.43 3.45v2.92a3.45 3.45 0 003.43 3.45h2.05a3.45 3.45 0 003.43-3.45v-2.92a3.45 3.45 0 00-3.43-3.45z;
          m 144.67484,164.95706 h -2.05 a 3.45,3.45 0 0 0 -3.43,3.45 v 2.92 a 3.45,3.45 0 0 0 3.43,3.45 h 2.05 a 3.45,3.45 0 0 0 3.43,-3.45 v -2.92 a 3.45,3.45 0 0 0 -3.43,-3.45 z;
          M144.87 162.42h-2.05a3.45 3.45 0 00-3.43 3.45v2.92a3.45 3.45 0 003.43 3.45h2.05a3.45 3.45 0 003.43-3.45v-2.92a3.45 3.45 0 00-3.43-3.45z;
        "
          repeatCount="indefinite"
        />
      </path>
    </g>

    <g id="frontPartEngine">
      <animateTransform
        attributeName="transform"
        attributeType="XML"
        type="translate"
        values="0, 0; 0, 5; 0, 0; 0, -5; 0, 0"
        dur="2s"
        begin="0s"
        id="frontPartEngineTransform"
        repeatCount="indefinite"
      />
      <g>
        <path d="M82.48 103.87h9.16a3.29 3.29 0 013.29 3.3v5.71a3.29 3.29 0 01-3.29 3.3H74.82a1.32 1.32 0 01-1.32-1.32v-2a9 9 0 019-9" fill="#068e4d"/>
        <path d="M82.48 103.87h9.16a3.29 3.29 0 013.29 3.3v5.71a3.29 3.29 0 01-3.29 3.3H74.82a1.32 1.32 0 01-1.32-1.32v-2a9 9 0 018.98-8.99z" fill="none" stroke="#fff" stroke-width="2" stroke-linecap="round" stroke-linejoin="round"/>
      </g>
      <g>
        <path d="M82.48 137.94h9.16a3.29 3.29 0 003.29-3.3v-5.71a3.29 3.29 0 00-3.29-3.3H74.82a1.32 1.32 0 00-1.32 1.32v2a9 9 0 009 9" fill="#068e4d"/>
        <path d="M82.48 137.94h9.16a3.29 3.29 0 003.29-3.3v-5.71a3.29 3.29 0 00-3.29-3.3H74.82a1.32 1.32 0 00-1.32 1.32v2a9 9 0 008.98 8.99z" fill="none" stroke="#fff" stroke-width="2" stroke-linecap="round" stroke-linejoin="round"/>
      </g>
    </g>

    <g id="trace">
      <path fill="none" stroke="#fff" stroke-linecap="round" stroke-miterlimit="10" stroke-width="2" d="M65.48 110.03h-22.2">
        <animate
          attributeName="d"
          attributeType="XML"
          from="M65.48 110.03h-22.2"
          to="M 65.699519,110.03 H 48.304401"
          dur="0.25s"
          repeatCount="indefinite"
        />
      </path>
      <path fill="none" stroke="#fff" stroke-linecap="round" stroke-miterlimit="10" stroke-width="2" d="M65.48 131.77h-22.2">
        <animate
          attributeName="d"
          attributeType="XML"
          from="M65.48 131.77h-22.2"
          to="M 65.757287,131.77 H 49.626612"
          dur="0.3s"
          repeatCount="indefinite"
        />
      </path>
      <path fill="none" stroke="#fff" stroke-linecap="round" stroke-miterlimit="10" stroke-width="2" d="M65.48 121.52H28">
        <animate
          attributeName="d"
          attributeType="XML"
          from="M65.48 121.52H28"
          to="M 65.678386,121.52 H 35.529495"
          dur="0.35s"
          repeatCount="indefinite"
        />
      </path>
    </g>
  </g>

  <g id="chair" transform="translate(0 35)">
    <defs>
      <clipPath id="clipPath">
        <path d="M 220.60161,154.68747 H 203.30849 A 17.767602,17.439578 0 0 1 185.62164,137.26771 V 99.762704 a 17.767602,17.439578 0 0 1 17.68685,-17.41976 h 17.29312 a 17.767602,17.439578 0 0 1 17.67675,17.41976 v 37.485186 a 17.777696,17.449488 0 0 1 -17.67675,17.43958 z" />
      </clipPath>
    </defs>

    <g clip-path="url(#clipPath)" fill="none" stroke="#fff" stroke-linecap="round" stroke-miterlimit="10" stroke-width="2" opacity="0">
      <animateTransform
        attributeName="transform"
        attributeType="XML"
        type="translate"
        from="300, 60"
        to="-80, 60"
        dur="1.5s"
        begin="3s"
        fill="freeze"
        id="windowCloudTransform"
        repeatCount="indefinite"
      />
      <animate
        attributeName="opacity"
        attributeType="XML"
        from="0"
        to="1"
        fill="freeze"
        begin="dirigibleOpacity.end-0.2s"
        dur="0.1s"
        id="windowCloudOpacity"
      />
      <path d="M28.18 38.34h62.91"/>
      <path d="M1 28.08h35.29a12.4 12.4 0 1124.8 0h17.93"/>
      <path d="M218.19 23.72h39.78"/>
      <path d="M237.98 13.45h-27.36a12.4 12.4 0 10-24.8 0h-17.94"/>
      <path d="M246.24 13.45h22.19"/>
    </g>

    <path d="M220.52 120.53h-17.13a17.6 17.6 0 01-17.52-17.58V65.1a17.6 17.6 0 0117.52-17.58h17.13a17.6 17.6 0 0117.51 17.58v37.83a17.61 17.61 0 01-17.51 17.6z" fill="none" stroke="#fff" stroke-width="2" opacity="0">
      <animate
        attributeName="opacity"
        attributeType="XML"
        from="0"
        to="1"
        fill="freeze"
        begin="dirigibleOpacity.end-0.2s"
        dur="0.2s"
        id="chairWindow"
      />
    </path>
    <path fill="none" stroke="#fff" stroke-linecap="round" stroke-miterlimit="10" stroke-width="2" d="M17.55 224.1h223.49" id="floor" opacity="0">
      <animate
        attributeName="opacity"
        attributeType="XML"
        from="0"
        to="1"
        fill="freeze"
        begin="seatTransform.end-0.25s"
        dur="0.25s"
        id="floorOpacity"
      />
    </path>

    <g id="skiing" opacity="0">
      <animate
        attributeName="opacity"
        attributeType="XML"
        from="0"
        to="1"
        fill="freeze"
        begin="seatTransform.end-0.15s"
        dur="0.5s"
        id="skiingOpacity"
      />
      <animateTransform
        attributeName="transform"
        attributeType="XML"
        type="translate"
        from="-160, 0"
        to="0, 0"
        dur="1.5s"
        begin="skiingTransform.end - 0.15s"
        fill="freeze"
        id="skiingTransform"
      />
      <animateTransform
        begin="treeTransform.end"
        attributeName="transform"
        type="rotate"
        values="0 5 10; 1 5 5; 0 5 10"
        dur="1s"
        additive="sum"
        repeatDur="indefinite"
      />
      <path d="M36.66 222.89a2.2 2.2 0 01-2-2.36L48.32 27.36c1.1-15.49-4.8-21.92-8.75-24.47A1.35 1.35 0 0140.1.44C48.52-.9 67.7-.9 65.52 29.29L51.95 221.77a2.2 2.2 0 01-2.35 2z" fill="#fff"/>
      <path d="M70.02 223.27a2.2 2.2 0 01-2.17-2.23l2.24-193.63C70.28 11.88 64.02 5.8 59.93 3.5a1.35 1.35 0 01.39-2.47c8.36-1.9 27.49-3 27.15 27.28l-2.25 192.93a2.2 2.2 0 01-2.22 2.18z" fill="#fff"/>
    </g>
    <g id="seat" opacity="0">
      <animateTransform
        attributeName="transform"
        attributeType="XML"
        type="translate"
        from="-200, 0"
        to="0, 0"
        dur="0.75s"
        begin="dirigibleOpacity.end-0.5s"
        fill="freeze"
        id="seatTransform"
      />
      <animate
        attributeName="opacity"
        attributeType="XML"
        from="0"
        to="1"
        fill="freeze"
        begin="dirigibleOpacity.end-0.5s"
        dur="0.75s"
        id="seatOpacity"
      />
      <path d="M203.02 154.92h-60.74v-14.19h55.09a9.92 9.92 0 019.9 9.93 4.26 4.26 0 01-4.25 4.25" fill="#a67ee5"/>
      <path d="M203.02 154.92h-60.74v-14.19h55.09a9.92 9.92 0 019.9 9.93 4.26 4.26 0 01-4.25 4.26z" fill="none" stroke="#fff" stroke-miterlimit="10" stroke-width="2"/>
      <path fill="#a67ee5" d="M130.99 223.41h-13.97l-6.31-41.59h13.97l6.31 41.59z"/>
      <path fill="none" stroke="#fff" stroke-miterlimit="10" stroke-width="2" d="M130.99 223.41h-13.97l-6.31-41.59h13.97l6.31 41.59z"/>
      <path fill="#a67ee5" d="M180.54 223.41h-13.96l-6.3-41.59h13.96l6.3 41.59z"/>
      <path fill="none" stroke="#fff" stroke-miterlimit="10" stroke-width="2" d="M180.54 223.41h-13.96l-6.3-41.59h13.96l6.3 41.59z"/>
      <path d="M226.85 167.55h-55.89a5.59 5.59 0 01-5.53-4.77l-10.86-72.24a17.71 17.71 0 00-12.49-31.31H87l-.32 102.87 15.77 23.35 47.19 8.39a12.3 12.3 0 004.22.75h73a13.53 13.53 0 000-27.06" fill="#a67ee5"/>
      <path d="M226.85 167.55h-55.89a5.59 5.59 0 01-5.53-4.77l-10.86-72.24a17.71 17.71 0 00-12.49-31.31H87l-.32 102.87 15.77 23.35 47.19 8.39a12.3 12.3 0 004.22.75h73a13.53 13.53 0 00-.01-27.04z" fill="none" stroke="#fff" stroke-miterlimit="10" stroke-width="2"/>
      <path d="M107.94 162.79L97.08 90.55a17.71 17.71 0 10-29-13.61 18 18 0 00.79 5.25l15.3 101.91a12.36 12.36 0 0012.21 10.54h73a13.53 13.53 0 000-27.05h-55.91a5.62 5.62 0 01-5.53-4.78" fill="#a67ee5"/>
      <path d="M107.94 162.79L97.08 90.55a17.71 17.71 0 10-29-13.61 18 18 0 00.79 5.25l15.3 101.91a12.36 12.36 0 0012.21 10.54h73a13.53 13.53 0 000-27.05h-55.91a5.62 5.62 0 01-5.53-4.8z" fill="none" stroke="#fff" stroke-miterlimit="10" stroke-width="2"/>
      <path d="M151.78 154.92h-72l-2.13-14.19h68.47a9.92 9.92 0 019.9 9.93 4.26 4.26 0 01-4.25 4.25" fill="#a67ee5"/>
      <path d="M151.78 154.92h-72l-2.13-14.19h68.47a9.92 9.92 0 019.9 9.93 4.26 4.26 0 01-4.24 4.26z" fill="none" stroke="#fff" stroke-miterlimit="10" stroke-width="2"/>
      <path fill="none" stroke="#fff" stroke-linecap="round" stroke-miterlimit="10" stroke-width="2" d="M97.08 90.54h57.49"/>
    </g>
    <g id="tree" opacity="0">
      <animate
        attributeName="opacity"
        attributeType="XML"
        from="0"
        to="1"
        fill="freeze"
        begin="skiingOpacity.end - 0.5s"
        dur="0.5s"
        id="treeOpacity"
      />
      <animateTransform
        attributeName="transform"
        attributeType="XML"
        type="translate"
        from="-120, 0"
        to="0, 0"
        dur="0.6s"
        begin="dirigibleOpacity.end-0.25s"
        fill="freeze"
        id="treeTransform"
      />
      <animateTransform
        begin="treeTransform.end"
        attributeName="transform"
        type="rotate"
        values="0 100 160; 3 100 160; 0 100 160"
        dur="1s"
        additive="sum"
        repeatDur="indefinite"
      />
      <path d="M24.7 89.1A131 131 0 0140.29 116a255 255 0 01-20.08-23.55A259 259 0 013.14 66.57 131.72 131.72 0 0124.7 89.1" fill="#36e69a"/>
      <path d="M26.46 109.49a127.19 127.19 0 0122.8 20.49 242.09 242.09 0 01-25.84-15.71A235.86 235.86 0 010 95.57a119.82 119.82 0 0126.46 13.92" fill="#36e69a"/>
      <path d="M39.18 100.58a258.38 258.38 0 0010.08 29.39 125.63 125.63 0 00-4.5-30.52A135.9 135.9 0 0032.7 70.01a260.33 260.33 0 006.47 30.57" fill="#36e69a"/>
      <path d="M52.84 108.62a250.14 250.14 0 002.06 30.67 119.93 119.93 0 003.76-30.05 131.24 131.24 0 00-4-31.36 238.1 238.1 0 00-1.87 30.74" fill="#25b774"/>
      <path d="M28.6 124.66a121.93 121.93 0 0126.29 14.64 225.91 225.91 0 01-28.16-9.2A228.11 228.11 0 01.36 117.41a113.61 113.61 0 0128.25 7.29" fill="#25b774"/>
      <path d="M33.58 138.93a118.11 118.11 0 0127.56 11.17 211 211 0 01-28.78-5.6 220.87 220.87 0 01-27.42-9.33 114 114 0 0128.65 3.73" fill="#25b774"/>
      <path d="M64.23 119.89a238 238 0 00-3.1 30.25 117.11 117.11 0 008.82-28.54 127.44 127.44 0 001.42-31.19 213.92 213.92 0 00-7.15 29.48" fill="#25b774"/>
      <path d="M44.38 157.1a118.24 118.24 0 0127.07 12.34 212.3 212.3 0 01-28.53-6.79 220.78 220.78 0 01-27-10.45 114.06 114.06 0 0128.46 4.9" fill="#068e4d"/>
      <path d="M75.79 139.39a236.56 236.56 0 00-4.34 30.1 116.94 116.94 0 0010-28.16 127.42 127.42 0 002.71-31.1 214.43 214.43 0 00-8.36 29.16" fill="#068e4d"/>
      <path d="M54.42 175.79a118.21 118.21 0 0126.54 13.47 213.62 213.62 0 01-28.23-8 221.65 221.65 0 01-26.55-11.57 113.82 113.82 0 0128.24 6.08" fill="#068e4d"/>
      <path d="M86.52 159.36a236.09 236.09 0 00-5.58 29.9 117.46 117.46 0 0011.15-27.73 127.2 127.2 0 004-31 214.24 214.24 0 00-9.57 28.83" fill="#068e4d"/>
      <path d="M38.14 112.77A529.26 529.26 0 0195 223.1" fill="none" stroke="#36e69a" stroke-linecap="round" stroke-linejoin="round" stroke-width="2"/>
    </g>
  </g>

  <g id="mountains">
    <path d="M249.17 258.42h-45.06l-32.08-31.3a1.89 1.89 0 00-2.44 0l-10.2 10.23a1.72 1.72 0 01-2.25 0l-19-20.17a2.4 2.4 0 00-3.1 0l-26.42 25.64a1.71 1.71 0 01-2.25 0l-2.63-2.92a1.71 1.71 0 00-2.31 0l-17.57 19.64H40.01" fill="none" stroke="#fff" stroke-linecap="round" stroke-miterlimit="10" stroke-width="2">
      <animate
        attributeName="d"
        attributeType="XML"
        from="M249.17 258.42h-45.06l-32.08-31.3a1.89 1.89 0 00-2.44 0l-10.2 10.23a1.72 1.72 0 01-2.25 0l-19-20.17a2.4 2.4 0 00-3.1 0l-26.42 25.64a1.71 1.71 0 01-2.25 0l-2.63-2.92a1.71 1.71 0 00-2.31 0l-17.57 19.64H40.01"
        to="m 249.17,259.51073 h -45.06 l -32.08,-0.81807 a 1.89,0.04939789 0 0 0 -2.44,0 l -10.2,0.26737 a 1.72,0.04495469 0 0 1 -2.25,0 l -19,-0.52717 a 2.4,0.06272747 0 0 0 -3.1,0 l -26.42,0.67014 a 1.71,0.04469333 0 0 1 -2.25,0 l -2.63,-0.0763 a 1.71,0.04469333 0 0 0 -2.31,0 L 83.86,259.54 H 40.01"
        fill="freeze"
        dur="0.75s"
        begin="cloudRightTransform.end - 0.75s"
      />
    </path>
    <path d="M249.17 258.54H40.01" fill="none" stroke="#fff" stroke-linecap="round" stroke-miterlimit="10" stroke-width="2"/>
  </g>
</svg>
