<svg xmlns="http://www.w3.org/2000/svg" viewBox="0 0 269.43 260.54">
  <g id="dirigible">

    <g id="clouds" opacity="0">
      <animate
        attributeName="opacity"
        attributeType="XML"
        from="0"
        to="1"
        fill="freeze"
        begin="0s"
        dur="0.5s"
        id="fadeInClouds"
      />
      <g fill="none" stroke="#fff" stroke-width="2" stroke-linecap="round" id="cloudLeft" transform="translate(180, 15)">
        <animateTransform
          attributeName="transform"
          attributeType="XML"
          type="translate"
          from="200, 15"
          to="-40, 15"
          dur="2.5s"
          begin="fadeInClouds.end"
          fill="freeze"
          id="cloudLeftTransform"
        />
        <animate
          attributeName="opacity"
          attributeType="XML"
          from="1"
          to="0"
          fill="freeze"
          begin="cloudLeftTransform.end - 0.5s"
          dur="0.5s"
        />
        <path d="M28.18 38.34h62.91"/>
        <path d="M1 28.08h35.29a12.4 12.4 0 1124.8 0h17.93"/>
      </g>
      <g stroke-miterlimit="10" fill="none" stroke="#fff" stroke-width="2" stroke-linecap="round" id="cloudRight"  transform="translate(140, 0)">
        <animateTransform
          attributeName="transform"
          attributeType="XML"
          type="translate"
          from="140, 0"
          to="-100, 0"
          dur="2.5s"
          begin="cloudLeftTransform.end - 2s"
          fill="freeze"
          id="cloudRightTransform"
        />
        <animate
          attributeName="opacity"
          attributeType="XML"
          from="1"
          to="0"
          fill="freeze"
          begin="cloudRightTransform.end - 0.5s"
          dur="0.5s"
        />
        <path d="M218.19 23.72h39.78"/>
        <path d="M237.98 13.45h-27.36a12.4 12.4 0 10-24.8 0h-17.94"/>
        <path fill="none" stroke="#fff" stroke-linecap="round" stroke-miterlimit="10" stroke-width="2" d="M246.24 13.45h22.19"/>
      </g>
    </g>
  </g>

  <path d="M82.46 137.93h9.16a3.29 3.29 0 003.29-3.3v-5.71a3.29 3.29 0 00-3.29-3.3H74.8a1.32 1.32 0 00-1.32 1.32v2a9 9 0 009 9" fill="#068e4d"/>
  <path d="M82.46 137.93h9.16a3.29 3.29 0 003.29-3.3v-5.71a3.29 3.29 0 00-3.29-3.3H74.8a1.32 1.32 0 00-1.32 1.32v2a9 9 0 008.98 8.99z" fill="none" stroke="#fff" stroke-linecap="round" stroke-linejoin="round" stroke-width="2"/>
  <path d="M82.46 103.88h9.16a3.29 3.29 0 013.29 3.3v5.71a3.29 3.29 0 01-3.29 3.3H74.8a1.32 1.32 0 01-1.32-1.32v-2a9 9 0 019-9" fill="#068e4d"/>
  <path d="M82.46 103.88h9.16a3.29 3.29 0 013.29 3.3v5.71a3.29 3.29 0 01-3.29 3.3H74.8a1.32 1.32 0 01-1.32-1.32v-2a9 9 0 018.98-8.99z" fill="none" stroke="#fff" stroke-linecap="round" stroke-linejoin="round" stroke-width="2"/>

  <g id="cabin">
    <path d="M134.67 179.82h48.36a13.27 13.27 0 0013-10.65l3.74-18.32h-68.18v25.89a3.09 3.09 0 003.08 3.08z" fill="none" stroke="#fff" stroke-linecap="round" stroke-linejoin="round" stroke-width="2">
      <animate
        attributeType="XML"
        attributeName="d"
        dur="2s"
        values="
          M134.67 179.82h48.36a13.27 13.27 0 0013-10.65l3.74-18.32h-68.18v25.89a3.09 3.09 0 003.08 3.08z;
          m 134.67,177.63616 h 48.36 a 13.27,12.269671 0 0 0 13,-9.84717 L 199.77,150.85 h -68.18 v 23.93834 a 3.09,2.8570674 0 0 0 3.08,2.84782 z;
          M134.67 179.82h48.36a13.27 13.27 0 0013-10.65l3.74-18.32h-68.18v25.89a3.09 3.09 0 003.08 3.08z;
          m 134.67,183.096 h 48.36 a 13.27,14.770607 0 0 0 13,-11.85433 L 199.77,150.85 h -68.18 v 28.81771 a 3.09,3.4394253 0 0 0 3.08,3.42829 z;
          M134.67 179.82h48.36a13.27 13.27 0 0013-10.65l3.74-18.32h-68.18v25.89a3.09 3.09 0 003.08 3.08z;
        "
        repeatCount="indefinite"
      />
    </path>
    <path d="M195.02 172.23h-9.22a8.31 8.31 0 01-8.28-8.31v-13.07" fill="none" stroke="#fff" stroke-linecap="round" stroke-miterlimit="10" stroke-width="2">
      <animate
        attributeType="XML"
        attributeName="d"
        dur="2s"
        values="
          M195.02 172.23h-9.22a8.31 8.31 0 01-8.28-8.31v-13.07;
          m 195.02,170.61832 h -9.22 a 8.31,7.6835696 0 0 1 -8.28,-7.68357 V 150.85;
          M195.02 172.23h-9.22a8.31 8.31 0 01-8.28-8.31v-13.07;
          m 195.02,174.64771 h -9.22 a 8.31,9.2497167 0 0 1 -8.28,-9.24972 V 150.85;
          M195.02 172.23h-9.22a8.31 8.31 0 01-8.28-8.31v-13.07;
        "
        repeatCount="indefinite"
      />
    </path>

    <path d="M163.48 162.42h-2.05a3.45 3.45 0 00-3.43 3.45v2.92a3.45 3.45 0 003.43 3.45h2.05a3.45 3.45 0 003.43-3.45v-2.92a3.44 3.44 0 00-3.43-3.45z" fill="none" stroke="#fff" stroke-linecap="round" stroke-linejoin="round" stroke-width="2">
      <animate
        attributeType="XML"
        attributeName="d"
        dur="2s"
        values="
          M163.48 162.42h-2.05a3.45 3.45 0 00-3.43 3.45v2.92a3.45 3.45 0 003.43 3.45h2.05a3.45 3.45 0 003.43-3.45v-2.92a3.44 3.44 0 00-3.43-3.45z;
          m 163.28484,160.66357 h -2.05 a 3.45,3.45 0 0 0 -3.43,3.45 v 2.92 a 3.45,3.45 0 0 0 3.43,3.45 h 2.05 a 3.45,3.45 0 0 0 3.43,-3.45 v -2.92 a 3.44,3.44 0 0 0 -3.43,-3.45 z;
          M163.48 162.42h-2.05a3.45 3.45 0 00-3.43 3.45v2.92a3.45 3.45 0 003.43 3.45h2.05a3.45 3.45 0 003.43-3.45v-2.92a3.44 3.44 0 00-3.43-3.45z;
          m 163.28484,164.95706 h -2.05 a 3.45,3.45 0 0 0 -3.43,3.45 v 2.92 a 3.45,3.45 0 0 0 3.43,3.45 h 2.05 a 3.45,3.45 0 0 0 3.43,-3.45 v -2.92 a 3.44,3.44 0 0 0 -3.43,-3.45 z;
          M163.48 162.42h-2.05a3.45 3.45 0 00-3.43 3.45v2.92a3.45 3.45 0 003.43 3.45h2.05a3.45 3.45 0 003.43-3.45v-2.92a3.44 3.44 0 00-3.43-3.45z;
        "
        repeatCount="indefinite"
      />
    </path>
    <path d="M144.87 162.42h-2.05a3.45 3.45 0 00-3.43 3.45v2.92a3.45 3.45 0 003.43 3.45h2.05a3.45 3.45 0 003.43-3.45v-2.92a3.45 3.45 0 00-3.43-3.45z" fill="none" stroke="#fff" stroke-linecap="round" stroke-linejoin="round" stroke-width="2">
      <animate
        attributeType="XML"
        attributeName="d"
        dur="2s"
        values="
          M144.87 162.42h-2.05a3.45 3.45 0 00-3.43 3.45v2.92a3.45 3.45 0 003.43 3.45h2.05a3.45 3.45 0 003.43-3.45v-2.92a3.45 3.45 0 00-3.43-3.45z;
          m 144.67484,160.66357 h -2.05 a 3.45,3.45 0 0 0 -3.43,3.45 v 2.92 a 3.45,3.45 0 0 0 3.43,3.45 h 2.05 a 3.45,3.45 0 0 0 3.43,-3.45 v -2.92 a 3.45,3.45 0 0 0 -3.43,-3.45 z;
          M144.87 162.42h-2.05a3.45 3.45 0 00-3.43 3.45v2.92a3.45 3.45 0 003.43 3.45h2.05a3.45 3.45 0 003.43-3.45v-2.92a3.45 3.45 0 00-3.43-3.45z;
          m 144.67484,164.95706 h -2.05 a 3.45,3.45 0 0 0 -3.43,3.45 v 2.92 a 3.45,3.45 0 0 0 3.43,3.45 h 2.05 a 3.45,3.45 0 0 0 3.43,-3.45 v -2.92 a 3.45,3.45 0 0 0 -3.43,-3.45 z;
          M144.87 162.42h-2.05a3.45 3.45 0 00-3.43 3.45v2.92a3.45 3.45 0 003.43 3.45h2.05a3.45 3.45 0 003.43-3.45v-2.92a3.45 3.45 0 00-3.43-3.45z;
        "
        repeatCount="indefinite"
      />
    </path>
  </g>

  <path d="M164.23 157.62c43.38 0 74.86-15.55 74.86-37s-31.48-37-74.86-37c-27.94 0-55.36 13.53-73.46 24.87a14.3 14.3 0 000 24.21c18.09 11.33 45.52 24.87 73.46 24.87" fill="#068e4d"/>
  <path d="M164.23 157.62c43.38 0 74.86-15.55 74.86-37s-31.48-37-74.86-37c-27.94 0-55.36 13.53-73.46 24.87a14.3 14.3 0 000 24.21c18.09 11.38 45.52 24.92 73.46 24.92z" fill="none" stroke="#fff" stroke-width="2"/>
  <path d="M164.23 106.63c-28.23 0-56.07 5.76-72.81 10-3.95 1-6 2.66-6.08 4.34a12.93 12.93 0 016.07-11.43c16.74-10.5 44.58-24.68 72.81-24.68 44.81 0 73.64 16 73.64 35.75v.37c-.37-7.95-29.1-14.37-73.63-14.37" fill="#36e69a"/>
  <path d="M91.41 125.66c16.74 4.27 44.58 10 72.81 10 44.14 0 72.75-6.32 73.6-14.18-.86 19.34-29.45 34.86-73.6 34.86-28.23 0-56.07-14.19-72.81-24.68a12.88 12.88 0 01-6-10.18c.26 1.61 2.26 3.18 6 4.14" fill="#068e4d"/>
  <path d="M91.41 116.66c16.74-4.27 44.58-10 72.81-10 44.53 0 73.26 6.43 73.61 14.38v.51c-.85 7.86-29.45 14.17-73.6 14.17-28.23 0-56.07-5.76-72.81-10-3.79-1-5.79-2.53-6-4.13v-.51c.13-1.69 2.15-3.36 6.1-4.37" fill="#25b774">
    <animate
      attributeType="XML"
      attributeName="d"
      dur="2s"
      values="
        M91.41 116.66c16.74-4.27 44.58-10 72.81-10 44.53 0 73.26 6.43 73.61 14.38v.51c-.85 7.86-29.45 14.17-73.6 14.17-28.23 0-56.07-5.76-72.81-10-3.79-1-5.79-2.53-6-4.13v-.51c.13-1.69 2.15-3.36 6.1-4.37;
        m 91.41,115.09873 c 16.74,-4.27 44.58,-10 72.81,-10 44.53,0 73.26,6.43 73.61,14.38 v 0.51 c -0.85,7.86 -29.45,14.17 -73.6,14.17 -28.23,0 -56.07,-5.76 -72.81,-10 -3.79,-1 -5.79,-2.53 -6,-4.12999 v -0.51 c 0.13,-1.69001 2.15,-3.36001 6.1,-4.37;
        M91.41 116.66c16.74-4.27 44.58-10 72.81-10 44.53 0 73.26 6.43 73.61 14.38v.51c-.85 7.86-29.45 14.17-73.6 14.17-28.23 0-56.07-5.76-72.81-10-3.79-1-5.79-2.53-6-4.13v-.51c.13-1.69 2.15-3.36 6.1-4.37;
        m 91.33,116.31254 c 16.74,-4.49941 44.58,-10.53726 72.81,-10.53726 44.53,0 73.26,6.77546 73.61,15.15258 v 0.5374 c -0.85,8.28228 -29.45,14.93129 -73.6,14.93129 -28.23,0 -56.07,-6.06946 -72.81,-10.53726 -3.79,-1.05372 -5.79,-2.66592 -6,-4.35189 V 120.97 c 0.13,-1.78079 2.15,-3.54051 6.1,-4.60478;
        M91.41 116.66c16.74-4.27 44.58-10 72.81-10 44.53 0 73.26 6.43 73.61 14.38v.51c-.85 7.86-29.45 14.17-73.6 14.17-28.23 0-56.07-5.76-72.81-10-3.79-1-5.79-2.53-6-4.13v-.51c.13-1.69 2.15-3.36 6.1-4.37;
      "
      repeatCount="indefinite"
    />
  </path>

  <g id="frontPartEngine">
    <animateTransform
      attributeName="transform"
      attributeType="XML"
      type="translate"
      values="0, 0; 0, 5; 0, 0; 0, -5; 0, 0"
      dur="2s"
      begin="0s"
      id="frontPartEngineTransform"
      repeatCount="indefinite"
    />
    <g>
      <path d="M82.48 103.87h9.16a3.29 3.29 0 013.29 3.3v5.71a3.29 3.29 0 01-3.29 3.3H74.82a1.32 1.32 0 01-1.32-1.32v-2a9 9 0 019-9" fill="#068e4d"/>
      <path d="M82.48 103.87h9.16a3.29 3.29 0 013.29 3.3v5.71a3.29 3.29 0 01-3.29 3.3H74.82a1.32 1.32 0 01-1.32-1.32v-2a9 9 0 018.98-8.99z" fill="none" stroke="#fff" stroke-width="2" stroke-linecap="round" stroke-linejoin="round"/>
    </g>
    <g>
      <path d="M82.48 137.94h9.16a3.29 3.29 0 003.29-3.3v-5.71a3.29 3.29 0 00-3.29-3.3H74.82a1.32 1.32 0 00-1.32 1.32v2a9 9 0 009 9" fill="#068e4d"/>
      <path d="M82.48 137.94h9.16a3.29 3.29 0 003.29-3.3v-5.71a3.29 3.29 0 00-3.29-3.3H74.82a1.32 1.32 0 00-1.32 1.32v2a9 9 0 008.98 8.99z" fill="none" stroke="#fff" stroke-width="2" stroke-linecap="round" stroke-linejoin="round"/>
    </g>
  </g>

  <g id="trace">
    <path fill="none" stroke="#fff" stroke-linecap="round" stroke-miterlimit="10" stroke-width="2" d="M65.48 110.03h-22.2">
      <animate
        attributeName="d"
        attributeType="XML"
        from="M65.48 110.03h-22.2"
        to="M 65.699519,110.03 H 48.304401"
        dur="0.25s"
        repeatCount="indefinite"
      />
    </path>
    <path fill="none" stroke="#fff" stroke-linecap="round" stroke-miterlimit="10" stroke-width="2" d="M65.48 131.77h-22.2">
      <animate
        attributeName="d"
        attributeType="XML"
        from="M65.48 131.77h-22.2"
        to="M 65.757287,131.77 H 49.626612"
        dur="0.3s"
        repeatCount="indefinite"
      />
    </path>
    <path fill="none" stroke="#fff" stroke-linecap="round" stroke-miterlimit="10" stroke-width="2" d="M65.48 121.52H28">
      <animate
        attributeName="d"
        attributeType="XML"
        from="M65.48 121.52H28"
        to="M 65.678386,121.52 H 35.529495"
        dur="0.35s"
        repeatCount="indefinite"
      />
    </path>
  </g>

  <g id="mountains">
    <path d="M249.17 258.42h-45.06l-32.08-31.3a1.89 1.89 0 00-2.44 0l-10.2 10.23a1.72 1.72 0 01-2.25 0l-19-20.17a2.4 2.4 0 00-3.1 0l-26.42 25.64a1.71 1.71 0 01-2.25 0l-2.63-2.92a1.71 1.71 0 00-2.31 0l-17.57 19.64H40.01" fill="none" stroke="#fff" stroke-linecap="round" stroke-miterlimit="10" stroke-width="2">
      <animate
        attributeName="d"
        attributeType="XML"
        from="M249.17 258.42h-45.06l-32.08-31.3a1.89 1.89 0 00-2.44 0l-10.2 10.23a1.72 1.72 0 01-2.25 0l-19-20.17a2.4 2.4 0 00-3.1 0l-26.42 25.64a1.71 1.71 0 01-2.25 0l-2.63-2.92a1.71 1.71 0 00-2.31 0l-17.57 19.64H40.01"
        to="m 249.17,259.51073 h -45.06 l -32.08,-0.81807 a 1.89,0.04939789 0 0 0 -2.44,0 l -10.2,0.26737 a 1.72,0.04495469 0 0 1 -2.25,0 l -19,-0.52717 a 2.4,0.06272747 0 0 0 -3.1,0 l -26.42,0.67014 a 1.71,0.04469333 0 0 1 -2.25,0 l -2.63,-0.0763 a 1.71,0.04469333 0 0 0 -2.31,0 L 83.86,259.54 H 40.01"
        fill="freeze"
        dur="0.75s"
        begin="cloudRightTransform.end - 0.75s"
      />
    </path>
    <path d="M249.17 258.54H40.01" fill="none" stroke="#fff" stroke-linecap="round" stroke-miterlimit="10" stroke-width="2"/>
  </g>
</svg>
